<svg xmlns="http://www.w3.org/2000/svg" viewBox="0 0 100 100">
  <!-- Rainbow background -->
  <defs>
    <linearGradient id="rainbow" x1="0%" y1="0%" x2="100%" y2="0%">
      <stop offset="0%" style="stop-color:#ff0000"/>
      <stop offset="16.67%" style="stop-color:#ff9900"/>
      <stop offset="33.33%" style="stop-color:#ffff00"/>
      <stop offset="50%" style="stop-color:#33ff00"/>
      <stop offset="66.67%" style="stop-color:#0099ff"/>
      <stop offset="83.33%" style="stop-color:#6633ff"/>
      <stop offset="100%" style="stop-color:#ff33cc"/>
    </linearGradient>
  </defs>
  
  <!-- Space background -->
  <rect width="100%" height="100%" fill="#2b3d5c"/>
  
  <!-- Rainbow trail -->
  <rect x="10" y="40" width="50" height="20" fill="url(#rainbow)"/>
  
  <!-- Cat body -->
  <rect x="60" y="35" width="30" height="30" rx="5" fill="#666666"/>
  
  <!-- Cat face -->
  <circle cx="75" cy="45" r="2" fill="#000000"/> <!-- Eye -->
  <path d="M73 50 Q75 52 77 50" stroke="#000000" fill="none"/> <!-- Smile -->
  
  <!-- Cat ears -->
  <path d="M65 35 L70 30 L75 35" fill="#666666"/>
  <path d="M75 35 L80 30 L85 35" fill="#666666"/>
  
  <!-- Stars in background -->
  <circle cx="20" cy="20" r="1" fill="white"/>
  <circle cx="40" cy="15" r="1" fill="white"/>
  <circle cx="80" cy="25" r="1" fill="white"/>
  <circle cx="15" cy="70" r="1" fill="white"/>
  <circle cx="90" cy="80" r="1" fill="white"/>
  
  <!-- Pop-tart texture -->
  <rect x="65" y="40" width="20" height="20" rx="3" fill="#ff99cc"/>
  <rect x="67" y="42" width="16" height="16" rx="2" fill="#ffccff"/>
</svg>
